<?xml version="1.0" encoding="UTF-8" standalone="no"?>
<!-- Created with Inkscape (http://www.inkscape.org/) -->

<svg
   width="398.92044"
   height="433.76559"
   viewBox="0 0 398.92044 433.76559"
   version="1.1"
   id="svg1"
   inkscape:version="1.4.3 (fcd0343856, 2026-01-01)"
   sodipodi:docname="emblemPhpPackege.svg"
   xmlns:inkscape="http://www.inkscape.org/namespaces/inkscape"
   xmlns:sodipodi="http://sodipodi.sourceforge.net/DTD/sodipodi-0.dtd"
   xmlns:xlink="http://www.w3.org/1999/xlink"
   xmlns="http://www.w3.org/2000/svg"
   xmlns:svg="http://www.w3.org/2000/svg">
  <sodipodi:namedview
     id="namedview1"
     pagecolor="#ffffff"
     bordercolor="#000000"
     borderopacity="0.25"
     inkscape:showpageshadow="2"
     inkscape:pageopacity="0.0"
     inkscape:pagecheckerboard="0"
     inkscape:deskcolor="#d1d1d1"
     inkscape:document-units="px"
     inkscape:zoom="0.55449878"
     inkscape:cx="73.94065"
     inkscape:cy="296.66432"
     inkscape:window-width="1920"
     inkscape:window-height="1011"
     inkscape:window-x="0"
     inkscape:window-y="0"
     inkscape:window-maximized="1"
     inkscape:current-layer="g28" />
  <defs
     id="defs1">
    <linearGradient
       id="linearGradient28"
       inkscape:collect="always">
      <stop
         style="stop-color:#fea75f;stop-opacity:1;"
         offset="0"
         id="stop27" />
      <stop
         style="stop-color:#ffc107;stop-opacity:1"
         offset="1"
         id="stop28" />
    </linearGradient>
    <inkscape:path-effect
       effect="bspline"
       id="path-effect13"
       is_visible="true"
       lpeversion="1.3"
       weight="33.333333"
       steps="2"
       helper_size="0"
       apply_no_weight="true"
       apply_with_weight="true"
       only_selected="false"
       uniform="false" />
    <inkscape:path-effect
       effect="offset"
       id="path-effect12"
       is_visible="true"
       lpeversion="1.3"
       linejoin_type="extrp_arc"
       unit="mm"
       offset="0"
       miter_limit="4"
       attempt_force_join="false"
       update_on_knot_move="true" />
    <linearGradient
       id="linearGradient9"
       inkscape:collect="always">
      <stop
         style="stop-color:#d56a11;stop-opacity:1"
         offset="0"
         id="stop9" />
      <stop
         style="stop-color:#ffe9a6;stop-opacity:1"
         offset="1"
         id="stop10" />
    </linearGradient>
    <linearGradient
       id="linearGradient7"
       inkscape:collect="always">
      <stop
         style="stop-color:#ffcb2f;stop-opacity:1;"
         offset="0"
         id="stop7" />
      <stop
         style="stop-color:#ffdf7e;stop-opacity:1"
         offset="1"
         id="stop8" />
    </linearGradient>
    <linearGradient
       id="linearGradient5"
       inkscape:collect="always">
      <stop
         style="stop-color:#fd7e14;stop-opacity:1"
         offset="0"
         id="stop5" />
      <stop
         style="stop-color:#ffc107;stop-opacity:1"
         offset="1"
         id="stop6" />
    </linearGradient>
    <linearGradient
       inkscape:collect="always"
       xlink:href="#linearGradient5"
       id="linearGradient6"
       x1="187.66805"
       y1="275.54092"
       x2="255.25461"
       y2="163.32175"
       gradientUnits="userSpaceOnUse" />
    <linearGradient
       inkscape:collect="always"
       xlink:href="#linearGradient7"
       id="linearGradient8"
       x1="297.38995"
       y1="-110.35223"
       x2="145.06073"
       y2="-172.15071"
       gradientUnits="userSpaceOnUse" />
    <linearGradient
       inkscape:collect="always"
       xlink:href="#linearGradient9"
       id="linearGradient10"
       x1="466.60938"
       y1="-14.906231"
       x2="153.43457"
       y2="318.75629"
       gradientUnits="userSpaceOnUse" />
    <linearGradient
       inkscape:collect="always"
       xlink:href="#linearGradient28"
       id="linearGradient27"
       x1="967.89038"
       y1="-35.7061"
       x2="1313.4745"
       y2="-42.082191"
       gradientUnits="userSpaceOnUse"
       gradientTransform="translate(-2328.9115,-205.43121)" />
  </defs>
  <g
     inkscape:label="Layer 1"
     inkscape:groupmode="layer"
     id="layer1"
     transform="translate(-54.213803,-36.942193)">
    <g
       id="g11"
       transform="translate(6.3120067,-60.414922)" />
    <g
       id="g13">
      <g
         id="g30"
         transform="translate(0,-37.266475)">
        <g
           id="g28"
           transform="translate(-912.10088,59.108824)">
          <g
             id="g31">
            <g
               id="g29"
               transform="translate(903.98544,-113.21174)">
              <path
                 style="fill:#6dc381;fill-opacity:1"
                 d="M 187.55677,403.96843 V 561.7686 l 76.64464,-44.2508 V 399.45985 Z"
                 id="path28" />
              <path
                 style="fill:#1ba97f;fill-opacity:1"
                 d="m 340.31113,404.27702 v 157.80017 l -76.64464,-44.2508 V 399.76844 Z"
                 id="path29" />
            </g>
            <path
               d="m 996.12595,233.24437 q 0.40426,3.52893 -0.52971,6.3415 -0.93944,2.76488 -3.05912,4.50543 -2.17283,1.69832 -5.36794,2.06433 l -0.67193,-5.86564 q 2.33672,-0.26768 3.5394,-1.99981 1.19722,-1.77982 0.8913,-4.45035 -0.295,-2.57516 -1.79961,-3.90053 -1.55777,-1.3676 -3.8468,-1.10538 -1.71677,0.19666 -2.88963,1.34561 -1.22601,1.10672 -1.4953,2.9735 l -0.65685,4.81001 q -0.52219,3.87662 -2.89375,6.37073 -2.37155,2.49411 -5.99585,2.90929 -4.43499,0.50804 -7.39108,-2.10047 -3.00377,-2.60306 -3.56098,-7.46725 -0.37694,-3.29048 0.53666,-5.85914 0.90813,-2.61636 2.94883,-4.20292 1.993,-1.58109 4.90198,-1.91433 l 0.66647,5.81795 q -2.0029,0.22944 -3.08437,1.75443 -1.08147,1.52499 -0.81925,3.81402 0.25675,2.24134 1.64961,3.43458 1.3397,1.151 3.29491,0.92703 1.62139,-0.18574 2.56674,-1.212 0.93988,-1.07394 1.22556,-2.79766 l 0.64045,-4.95307 q 0.51127,-3.97199 3.12127,-6.49342 2.60453,-2.56911 6.56265,-3.02253 3.09973,-0.35509 5.55264,0.81334 2.44745,1.12074 4.03003,3.5484 1.53488,2.43312 1.93367,5.91435 z m -0.5684,-28.51981 q -0.3665,5.02665 -3.35256,7.69658 -3.03393,2.66644 -7.86909,2.3139 l -16.37254,-1.19375 0.43631,-5.98411 16.32466,1.19025 q 2.4894,0.18151 3.96846,-0.96196 1.47907,-1.14348 1.64661,-3.44138 0.16406,-2.25002 -1.13351,-3.59594 -1.29407,-1.3938 -3.78346,-1.5753 l -16.32466,-1.19026 0.43631,-5.98411 16.37254,1.19374 q 4.83516,0.35254 7.44674,3.47873 2.56371,3.1227 2.20419,8.05361 z m 9.88965,-15.85445 -33.88977,-8.90439 1.48813,-5.66376 4.68885,1.23197 q -2.2311,-1.33065 -3.10169,-3.49493 -0.91701,-2.17648 -0.20954,-4.86909 0.64649,-2.46049 2.34143,-4.00031 1.70714,-1.58626 4.20386,-2.0221 2.46249,-0.49446 5.38722,0.274 l 6.91721,1.81747 q 4.41031,1.1588 6.50523,4.14106 2.09487,2.98226 1.10687,6.74263 -0.7075,2.6926 -2.58809,4.18364 -1.86844,1.44461 -4.55832,1.4823 l 6.08395,1.40001 7.14936,1.87847 z m -10.1493,-13.88287 q 0.5855,-2.22837 -0.30439,-3.75254 -0.87769,-1.5706 -3.3846,-2.22928 l -6.59225,-1.73209 q -2.50691,-0.65868 -4.04328,0.27763 -1.52418,0.88989 -2.10967,3.11825 -0.5855,2.22837 0.43147,3.83556 1.02916,1.56077 3.48965,2.20725 l 6.128,1.61011 q 2.46049,0.64649 4.12393,-0.20681 1.67565,-0.89972 2.26114,-3.12808 z m 17.6061,-12.35168 -31.745,-14.83436 2.47916,-5.30532 4.39212,2.05242 q -1.95647,-1.70899 -2.42506,-3.99426 -0.51206,-2.3056 0.66656,-4.8278 1.07701,-2.30477 3.0205,-3.51588 1.9638,-1.25459 4.49821,-1.23587 2.51124,-0.0451 5.25087,1.23513 l 6.47944,3.02783 q 4.1312,1.9305 5.6577,5.23995 1.5265,3.30945 -0.1196,6.83184 -1.1786,2.5222 -3.296,3.65202 -2.0971,1.08633 -4.7502,0.64129 l 5.7345,2.46779 6.6969,3.12944 z m -7.4967,-15.47714 q 0.9755,-2.08734 0.3732,-3.74633 -0.582,-1.70248 -2.9303,-2.79982 l -6.17502,-2.88558 q -2.34826,-1.09734 -4.02757,-0.45156 -1.65899,0.6023 -2.6344,2.68964 -0.97541,2.08734 -0.26298,3.85078 0.73275,1.71995 3.03752,2.79697 l 5.74019,2.68237 q 2.30476,1.07702 4.09426,0.53569 1.8097,-0.58482 2.7851,-2.67216 z m 18.9844,-22.5117 q -2.9263,4.16231 -6.9546,4.96812 -4.0676,0.77821 -8.0336,-2.01 l -5.0262,-3.53357 q -4.0052,-2.81581 -4.61041,-6.87913 -0.60519,-4.06332 2.32101,-8.22563 2.9263,-4.16232 6.9546,-4.96813 4.0283,-0.80581 8.0336,2.01 l 5.0262,3.53357 q 3.966,2.78821 4.6104,6.87913 0.6052,4.06332 -2.321,8.22564 z m -4.2801,-3.00906 q 1.3803,-1.96335 1.0654,-3.76893 -0.3265,-1.87245 -2.3684,-3.30796 l -5.3403,-3.75442 q -2.0419,-1.43551 -3.8751,-1.08139 -1.8448,0.28724 -3.2251,2.2506 -1.3803,1.96336 -1.0538,3.83581 0.3148,1.80557 2.3567,3.24108 l 5.3403,3.75442 q 2.0419,1.43551 3.8868,1.14827 1.8332,-0.35412 3.2135,-2.31748 z m 15.553,-12.36108 -18.6984,-18.636878 4.134,-4.147626 3.6377,3.62572 q -1.497,-2.169772 -1.2294,-4.546094 0.2676,-2.444205 2.4023,-4.586011 2.8464,-2.855743 6.2748,-2.623796 3.4285,0.231947 6.7262,3.518814 l 1.7678,1.762032 -4.2356,4.249616 -1.5639,-1.558721 q -1.6999,-1.694261 -3.4648,-1.691357 -1.7989,-0.03098 -3.4254,1.600872 -1.6943,1.699847 -1.5554,3.600324 0.1389,1.900477 2.0087,3.764164 l 11.457,11.419321 z m 30.9712,-27.036725 q -3.0078,2.147964 -6.032,1.712439 -3.0131,-0.502482 -5.1332,-3.471188 l -7.5876,-10.624841 -5.9374,4.240137 -3.1522,-4.413996 5.9374,-4.240138 -4.3238,-6.054597 4.9218,-3.51485 4.3238,6.054597 8.5545,-6.109145 3.1522,4.413996 -8.5545,6.109145 7.5039,10.507656 q 0.6695,0.937486 1.6236,1.199833 0.9653,0.19539 1.9028,-0.474105 l 6.3671,-4.546989 3.1522,4.413996 z m 39.0791,-20.646036 -10.1809,-33.528361 11.1608,-3.388983 q 3.3529,-1.018089 6.2235,-0.485177 2.9166,0.518966 5.0058,2.442965 2.0752,1.87807 3.0235,5.00126 0.9484,3.12319 0.2818,5.883975 -0.6806,2.714856 -2.8162,4.767929 -2.0897,2.039127 -5.4425,3.057216 l -5.4196,1.645679 3.905,12.860193 z m 0.302,-19.655716 5.4197,-1.645679 q 2.4343,-0.739161 3.4118,-2.641236 0.9775,-1.902076 0.2662,-4.244468 -0.7112,-2.342393 -2.5813,-3.37979 -1.8701,-1.037397 -4.3044,-0.298236 l -5.4196,1.645679 z m 35.2138,11.293075 q -3.996,0.538169 -6.628,-1.383712 -2.5909,-1.975859 -3.0843,-5.638788 -0.5125,-3.80564 1.8027,-6.393827 2.3089,-2.635758 6.8757,-3.250809 l 6.3744,-0.858508 -0.2498,-1.85525 q -0.5318,-3.948352 -5.1461,-3.326894 -2.0932,0.281898 -3.2211,1.257173 -1.1279,0.975275 -1.072,2.469181 l -5.7084,0.768814 q -0.2839,-3.545845 2.1805,-6.105682 2.512,-2.566243 7.2214,-3.200514 4.9949,-0.672713 8.068,1.286649 3.073,1.959361 3.6432,6.193137 l 2.3897,17.743799 -5.8036,0.781627 -0.6599,-4.899762 q 0.01,2.566084 -1.8467,4.268691 -1.8534,1.702607 -5.1357,2.144675 z m 1.2493,-5.108463 q 2.6164,-0.352373 3.9656,-1.841794 1.3493,-1.489421 1.061,-3.630093 l -0.4164,-3.092083 -6.0891,0.820068 q -1.9503,0.262678 -2.9447,1.510562 -0.9943,1.247885 -0.7637,2.960423 0.2371,1.760109 1.5737,2.694061 1.3778,0.879975 3.6136,0.578856 z m 30.7355,3.202181 q -3.4067,-0.09431 -5.9152,-1.412236 -2.4592,-1.364577 -3.7869,-3.706216 -1.3263,-2.389621 -1.2387,-5.556408 l 0.1833,-6.621463 q 0.088,-3.166787 1.5429,-5.431383 1.4566,-2.312577 3.9862,-3.491026 2.5789,-1.225101 5.9856,-1.130789 4.9421,0.136818 7.8452,2.810182 2.9524,2.626711 2.9742,7.045005 l -5.9018,-0.163385 q -0.087,-2.067195 -1.4957,-3.210622 -1.3596,-1.190081 -3.5667,-1.251184 -2.4471,-0.06774 -3.8758,1.237218 -1.4273,1.256982 -1.495,3.704044 l -0.1847,6.669445 q -0.068,2.447063 1.2866,3.82907 1.3542,1.382007 3.8013,1.449752 2.2551,0.06243 3.6771,-1.002624 1.4234,-1.113037 1.6245,-3.172261 l 5.9017,0.163385 q -0.2662,4.410324 -3.3607,6.917646 -3.0453,2.460669 -7.9874,2.32385 z m 17.9055,0.652498 6.6577,-34.4017 5.8907,1.140013 -3.6116,18.661744 4.1471,0.802569 8.1434,-8.9844 6.5504,1.267694 -10.1074,11.048838 5.3741,14.924972 -6.6918,-1.295055 -4.2354,-11.966734 -4.1471,-0.802569 -2.0794,10.744641 z m 35.0567,9.196711 q -3.7767,-1.411934 -5.1897,-4.348715 -1.3513,-2.964934 -0.057,-6.42691 1.3447,-3.596858 4.6075,-4.785531 3.2797,-1.233634 7.5959,0.380004 l 6.0247,2.25237 0.6556,-1.753468 q 1.3951,-3.73174 -2.9661,-5.362187 -1.9783,-0.739584 -3.433,-0.412279 -1.4547,0.327305 -2.1107,1.670661 l -5.3953,-2.017048 q 1.4237,-3.259858 4.8047,-4.353145 3.4258,-1.076478 7.8769,0.587587 4.7209,1.764917 6.505,4.942899 1.7841,3.177982 0.2881,7.179486 l -6.2696,16.770349 -5.4852,-2.050665 1.7313,-4.630955 q -1.2056,2.265258 -3.6432,2.891304 -2.4376,0.626046 -5.5399,-0.533757 z m 3.513,-3.913644 q 2.4728,0.92448 4.3654,0.24842 1.8926,-0.67606 2.649,-2.699292 l 1.0925,-2.922447 -5.7549,-2.151518 q -1.8434,-0.689158 -3.3091,-0.05847 -1.4657,0.630687 -2.0708,2.249273 -0.6219,1.663546 0.1155,3.117861 0.7992,1.426163 2.9124,2.216174 z m 14.9013,20.687805 2.5168,-4.311138 6.4253,3.750962 q 1.8239,1.064789 3.3996,0.650705 1.5514,-0.372631 2.5194,-2.030761 l 0.7986,-1.367957 2.1641,-3.516581 q -1.8179,1.495454 -4.0223,1.653648 -2.1388,0.140941 -4.3772,-1.165846 -3.4821,-2.032779 -4.1996,-5.564148 -0.6518,-3.548624 1.6956,-7.569589 l 2.5893,-4.435498 q 2.3232,-3.979512 5.7338,-5.15656 3.4521,-1.152847 6.9341,0.879932 2.2385,1.306786 3.1431,3.279961 0.9702,1.955922 0.5375,4.315621 l 2.1296,-3.647886 5.0573,2.952369 -13.1163,22.467663 q -2.1053,3.606433 -5.7196,4.27551 -3.597,0.73473 -7.7009,-1.661046 z m 13.7547,-9.756076 q 1.9897,1.161588 3.7451,0.63009 1.821,-0.548751 3.0552,-2.662867 l 2.3232,-3.979512 q 1.2342,-2.114116 0.7925,-3.9282 -0.3759,-1.831338 -2.3657,-2.992926 -1.9898,-1.161588 -3.7451,-0.63009 -1.7312,0.490044 -2.917,2.521253 l -2.5168,4.311139 q -1.1858,2.031209 -0.7856,3.821093 0.4244,1.748432 2.4142,2.91002 z m 19.9484,22.878876 q -2.562,-2.173932 -3.6266,-4.777037 -1.0647,-2.603104 -0.6043,-5.297102 0.528,-2.699541 2.6088,-5.151699 l 4.0373,-4.757918 q 2.0808,-2.452158 4.6273,-3.375953 2.6142,-0.92934 5.3559,-0.302601 2.7416,0.626738 5.3036,2.800671 2.5254,2.142876 3.5534,4.714924 1.0647,2.603105 0.5677,5.266047 -0.4293,2.657398 -2.448,5.036357 l -3.1056,3.659937 -12.4438,-10.559101 -1.1801,1.390776 q -1.7392,2.049564 -1.5784,4.011575 0.1918,1.925412 2.1316,3.571389 1.4273,1.211191 2.8193,1.573916 1.4595,0.357182 2.45,-0.43912 l 4.5383,3.850966 q -2.6808,2.194825 -6.2488,1.874171 -3.5369,-0.357254 -6.7576,-3.090198 z m 6.9313,-16.403412 -0.59,0.695388 8.0829,6.79576 0.5901,-0.695388 q 1.7702,-2.086164 1.7081,-4.090317 -0.062,-2.004153 -2.0018,-3.650131 -2.013,-1.70809 -4.0315,-1.406483 -1.9876,0.265007 -3.7578,2.351171 z m 27.3479,56.098286 15.2204,-8.38247 -3.4966,-6.34882 4.7511,-2.61663 3.4966,6.34883 4.0784,-2.24613 q 3.0272,-1.66723 5.9467,-0.64477 2.9194,1.02246 4.7487,4.34404 l 3.7281,6.76928 -4.6249,2.54715 -3.6587,-6.64314 q -0.5557,-1.00909 -1.4917,-1.31558 -0.8708,-0.28761 -1.8378,0.24498 l -3.9943,2.19982 4.8859,8.87154 -4.7511,2.61663 -4.8859,-8.87154 -15.2204,8.38246 z m 13.377,30.71056 q -1.5847,-4.83492 0.1795,-8.54494 1.8099,-3.72497 6.4168,-5.23491 l 5.8384,-1.91359 q 4.6524,-1.52489 8.2705,0.42104 3.618,1.94593 5.2027,6.78085 1.5847,4.83493 -0.1796,8.54495 -1.7642,3.71002 -6.4167,5.23491 l -5.8384,1.91359 q -4.6068,1.50994 -8.2705,-0.42104 -3.618,-1.94593 -5.2027,-6.78086 z m 4.9718,-1.62954 q 0.7475,2.28063 2.3826,3.10852 1.6958,0.85855 4.0676,0.0812 l 6.2033,-2.03319 q 2.3719,-0.77739 3.1848,-2.45819 0.8735,-1.65013 0.126,-3.93076 -0.7475,-2.28062 -2.4432,-3.13918 -1.6352,-0.82789 -4.007,-0.0505 l -6.2033,2.03319 q -2.3719,0.77739 -3.2454,2.42753 -0.8129,1.6808 -0.065,3.96142 z m 0.5417,19.87879 26.1808,-3.39456 0.753,5.80739 -5.0934,0.66039 q 2.6322,0.14273 4.3486,1.80786 1.7701,1.70656 2.1589,4.70546 0.5185,3.99853 -1.7619,6.56909 -2.2804,2.57055 -6.8978,3.16923 l -2.4753,0.32094 -0.7714,-5.95019 2.1896,-0.28391 q 2.3801,-0.3086 3.4573,-1.70671 1.1247,-1.40428 0.8285,-3.68915 -0.3086,-2.38008 -1.8971,-3.43256 -1.5885,-1.05249 -4.2066,-0.71303 l -16.0417,2.07994 z m 0.5189,56.44685 34.015,8.41306 -2.8005,11.32281 q -0.8413,3.4015 -2.7683,5.59499 -1.9386,2.24008 -4.6607,3.0502 -2.6755,0.82164 -5.8441,0.038 -3.1685,-0.78368 -5.1991,-2.76932 -1.9841,-1.97412 -2.6549,-4.85959 -0.6824,-2.83887 0.1589,-6.24037 l 1.36,-5.49832 -13.0469,-3.22693 z m 16.7318,10.31914 -1.3599,5.49832 q -0.6108,2.46958 0.523,4.28285 1.1338,1.81326 3.5102,2.40103 2.3764,0.58776 4.2247,-0.48792 1.8483,-1.07569 2.4592,-3.54527 l 1.3599,-5.49832 z m -24.3169,17.48974 31.9514,14.38444 -2.4631,5.47112 -12.9556,-5.83259 -3.8621,8.57872 12.9556,5.83259 -2.4631,5.47113 -31.9514,-14.38444 2.4631,-5.47112 14.0499,6.32521 3.8621,-8.57873 -14.0499,-6.32521 z m -12.4407,26.00049 28.9395,19.75618 -6.5764,9.63328 q -1.9756,2.89396 -4.547,4.27691 -2.5985,1.42261 -5.4322,1.23167 -2.7941,-0.16386 -5.4898,-2.00417 -2.6957,-1.8403 -3.9056,-4.40982 -1.1703,-2.54246 -0.7918,-5.4806 0.3514,-2.8985 2.327,-5.79245 l 3.1935,-4.6779 -11.1001,-7.57771 z m 12.0779,15.51006 -3.1935,4.6779 q -1.4343,2.10108 -1.0047,4.19605 0.4296,2.09496 2.4514,3.47518 2.0218,1.38023 4.1294,1.01732 2.1075,-0.36292 3.5419,-2.464 l 3.1934,-4.6779 z"
               id="text25"
               style="font-weight:bold;font-size:48px;font-family:'JetBrains Mono';-inkscape-font-specification:'JetBrains Mono Bold';fill:#8fd19e"
               transform="rotate(-14.493766,1167.5089,223.37281)"
               aria-label="Support Package for PHP" />
            <path
               id="path25"
               style="fill:url(#linearGradient27);stroke-width:1.39985"
               transform="rotate(168.08517)"
               d="m -925.34259,-448.35434 a 170.0202,161.40701 0 0 1 -170.02021,161.40701 170.0202,161.40701 0 0 1 -170.0202,-161.40701 170.0202,161.40701 0 0 1 170.0202,-161.40701 170.0202,161.40701 0 0 1 170.02021,161.40701 z" />
            <g
               id="g24"
               transform="translate(910.9263,-0.1061764)">
              <g
                 id="g25">
                <g
                   id="g10"
                   transform="translate(5.106407,-45.719131)">
                  <path
                     id="path1"
                     style="fill:#ffc107"
                     d="M 418.27148,258.23163 A 157.48941,157.48941 0 0 1 260.78207,415.72104 157.48941,157.48941 0 0 1 103.29266,258.23163 157.48941,157.48941 0 0 1 260.78207,100.74222 157.48941,157.48941 0 0 1 418.27148,258.23163 Z" />
                  <path
                     id="circle3"
                     style="fill:url(#linearGradient10);stroke-width:1.10313"
                     transform="matrix(0.00871443,0.99996203,0.99995709,-0.00926421,0,0)"
                     d="M 421.48955,246.79297 A 161.2585,171.09491 0 0 1 340.8603,394.96551 161.2585,171.09491 0 0 1 179.60179,394.9655 161.2585,171.09491 0 0 1 98.972549,246.79297" />
                  <path
                     id="path4"
                     style="fill:url(#linearGradient8);stroke-width:1.10313"
                     transform="matrix(-0.00871443,0.99996203,-0.99995709,-0.00926421,0,0)"
                     d="m 416.84052,-254.97523 a 161.2585,171.09491 0 0 1 -80.62926,148.17253 161.2585,171.09491 0 0 1 -161.2585,0 161.2585,171.09491 0 0 1 -80.629243,-148.17253" />
                  <path
                     id="circle1"
                     style="fill:#ffdf7e;stroke-width:0.81961"
                     d="M 381.86195,258.23163 A 129.07988,129.07988 0 0 1 252.78207,387.31151 129.07988,129.07988 0 0 1 123.70219,258.23163 129.07988,129.07988 0 0 1 252.78207,129.15175 129.07988,129.07988 0 0 1 381.86195,258.23163 Z" />
                  <path
                     id="path5"
                     style="fill:url(#linearGradient6)"
                     inkscape:transform-center-x="-0.18979135"
                     inkscape:transform-center-y="-9.5687272"
                     transform="translate(24.018122,56.653351)"
                     d="m 286.74544,287.64716 -59.82029,-31.91017 -60.19988,31.18816 11.86289,-66.75326 -48.26448,-47.61581 67.15196,-9.34562 30.37078,-60.61635 29.6393,60.97735 67.03466,10.15285 -48.83386,47.0317 z" />
                </g>
                <path
                   d="m 212.9944,240.15137 c 0,0 0,-44.67746 0,-44.67746 0,0 7.46664,0 7.46664,0 0,0 0,6.1814 0,6.1814 0,0 3.30491,-4.95736 3.30491,-4.95736 0,0 5.93659,-1.83606 5.93659,-1.83606 0,0 5.69179,1.59125 5.69179,1.59125 0,0 3.85573,4.52895 3.85573,4.52895 0,0 1.40764,6.73222 1.40764,6.73222 0,0 0,9.1191 0,9.1191 0,0 -2.9989,9.3639 -2.9989,9.3639 0,0 -7.95626,3.54972 -7.95626,3.54972 0,0 -5.99779,-1.83606 -5.99779,-1.83606 0,0 -3.30491,-5.14097 -3.30491,-5.14097 0,0 0.24481,7.95626 0.24481,7.95626 0,0 0,9.42511 0,9.42511 z m 13.83165,-17.01416 c 0,0 4.52895,-1.59125 4.52895,-1.59125 0,0 1.65245,-4.89616 1.65245,-4.89616 0,0 0,-8.69068 0,-8.69068 0,0 -1.65245,-4.89616 -1.65245,-4.89616 0,0 -4.52895,-1.59125 -4.52895,-1.59125 0,0 -4.59015,1.77485 -4.59015,1.77485 0,0 -1.59125,5.01857 -1.59125,5.01857 0,0 0,8.07866 0,8.07866 0,0 1.59125,5.01857 1.59125,5.01857 z m 22.88946,5.9978 c 0,0 0,-44.67746 0,-44.67746 0,0 7.65025,0 7.65025,0 0,0 0,11.01636 0,11.01636 0,0 -0.18361,6.2426 -0.18361,6.2426 0,0 2.9989,-5.01856 2.9989,-5.01856 0,0 6.059,-1.83606 6.059,-1.83606 0,0 7.89505,3.30491 7.89505,3.30491 0,0 2.9989,8.87429 2.9989,8.87429 0,0 0,22.09392 0,22.09392 0,0 -7.65025,0 -7.65025,0 0,0 0,-21.17589 0,-21.17589 0,0 -1.65245,-4.77376 -1.65245,-4.77376 0,0 -4.34534,-1.71365 -4.34534,-1.71365 0,0 -4.52895,1.71365 -4.52895,1.71365 0,0 -1.59125,4.89616 -1.59125,4.89616 0,0 0,21.05349 0,21.05349 z m 36.7211,11.01636 c 0,0 0,-44.67746 0,-44.67746 0,0 7.46665,0 7.46665,0 0,0 0,6.1814 0,6.1814 0,0 3.30491,-4.95736 3.30491,-4.95736 0,0 5.93659,-1.83606 5.93659,-1.83606 0,0 5.69179,1.59125 5.69179,1.59125 0,0 3.85572,4.52895 3.85572,4.52895 0,0 1.40765,6.73222 1.40765,6.73222 0,0 0,9.1191 0,9.1191 0,0 -2.9989,9.3639 -2.9989,9.3639 0,0 -7.95626,3.54972 -7.95626,3.54972 0,0 -5.9978,-1.83606 -5.9978,-1.83606 0,0 -3.3049,-5.14097 -3.3049,-5.14097 0,0 0.2448,7.95626 0.2448,7.95626 0,0 0,9.42511 0,9.42511 z m 13.83166,-17.01416 c 0,0 4.52894,-1.59125 4.52894,-1.59125 0,0 1.65246,-4.89616 1.65246,-4.89616 0,0 0,-8.69068 0,-8.69068 0,0 -1.65246,-4.89616 -1.65246,-4.89616 0,0 -4.52894,-1.59125 -4.52894,-1.59125 0,0 -4.59015,1.77485 -4.59015,1.77485 0,0 -1.59126,5.01857 -1.59126,5.01857 0,0 0,8.07866 0,8.07866 0,0 1.59126,5.01857 1.59126,5.01857 z"
                   id="text12"
                   style="font-weight:bold;font-size:61.202px;font-family:'JetBrains Mono';-inkscape-font-specification:'JetBrains Mono Bold';fill:#ffdf7e;stroke-width:0.31876"
                   aria-label="php"
                   transform="matrix(1.0684567,0.56719748,-0.59044422,1.0263899,99.313367,-156.43528)" />
              </g>
            </g>
          </g>
        </g>
      </g>
    </g>
  </g>
</svg>
