<?xml version="1.0" encoding="UTF-8" standalone="no"?>
<!-- Created with Inkscape (http://www.inkscape.org/) -->

<svg
   width="97.51709"
   height="109.46759"
   viewBox="0 0 97.51709 109.46759"
   version="1.1"
   id="svg1"
   inkscape:version="1.4.3 (fcd0343856, 2026-01-01)"
   sodipodi:docname="smallemblemphp.svg"
   xmlns:inkscape="http://www.inkscape.org/namespaces/inkscape"
   xmlns:sodipodi="http://sodipodi.sourceforge.net/DTD/sodipodi-0.dtd"
   xmlns:xlink="http://www.w3.org/1999/xlink"
   xmlns="http://www.w3.org/2000/svg"
   xmlns:svg="http://www.w3.org/2000/svg">
  <sodipodi:namedview
     id="namedview1"
     pagecolor="#ffffff"
     bordercolor="#000000"
     borderopacity="0.25"
     inkscape:showpageshadow="2"
     inkscape:pageopacity="0.0"
     inkscape:pagecheckerboard="0"
     inkscape:deskcolor="#d1d1d1"
     inkscape:document-units="px"
     inkscape:zoom="0.78417969"
     inkscape:cx="40.806973"
     inkscape:cy="-138.36114"
     inkscape:window-width="1920"
     inkscape:window-height="1011"
     inkscape:window-x="0"
     inkscape:window-y="0"
     inkscape:window-maximized="1"
     inkscape:current-layer="g24" />
  <defs
     id="defs1">
    <inkscape:path-effect
       effect="bspline"
       id="path-effect13"
       is_visible="true"
       lpeversion="1.3"
       weight="33.333333"
       steps="2"
       helper_size="0"
       apply_no_weight="true"
       apply_with_weight="true"
       only_selected="false"
       uniform="false" />
    <inkscape:path-effect
       effect="offset"
       id="path-effect12"
       is_visible="true"
       lpeversion="1.3"
       linejoin_type="extrp_arc"
       unit="mm"
       offset="0"
       miter_limit="4"
       attempt_force_join="false"
       update_on_knot_move="true" />
    <linearGradient
       id="linearGradient9"
       inkscape:collect="always">
      <stop
         style="stop-color:#d56a11;stop-opacity:1"
         offset="0"
         id="stop9" />
      <stop
         style="stop-color:#ffe9a6;stop-opacity:1"
         offset="1"
         id="stop10" />
    </linearGradient>
    <linearGradient
       id="linearGradient7"
       inkscape:collect="always">
      <stop
         style="stop-color:#ffcb2f;stop-opacity:1;"
         offset="0"
         id="stop7" />
      <stop
         style="stop-color:#ffdf7e;stop-opacity:1"
         offset="1"
         id="stop8" />
    </linearGradient>
    <linearGradient
       id="linearGradient5"
       inkscape:collect="always">
      <stop
         style="stop-color:#fd7e14;stop-opacity:1"
         offset="0"
         id="stop5" />
      <stop
         style="stop-color:#ffc107;stop-opacity:1"
         offset="1"
         id="stop6" />
    </linearGradient>
    <linearGradient
       inkscape:collect="always"
       xlink:href="#linearGradient5"
       id="linearGradient6"
       x1="187.66805"
       y1="275.54092"
       x2="255.25461"
       y2="163.32175"
       gradientUnits="userSpaceOnUse" />
    <linearGradient
       inkscape:collect="always"
       xlink:href="#linearGradient7"
       id="linearGradient8"
       x1="297.38995"
       y1="-110.35223"
       x2="145.06073"
       y2="-172.15071"
       gradientUnits="userSpaceOnUse" />
    <linearGradient
       inkscape:collect="always"
       xlink:href="#linearGradient9"
       id="linearGradient10"
       x1="466.60938"
       y1="-14.906231"
       x2="153.43457"
       y2="318.75629"
       gradientUnits="userSpaceOnUse" />
  </defs>
  <g
     inkscape:label="Layer 1"
     inkscape:groupmode="layer"
     id="layer1"
     transform="translate(-204.91547,-225.98292)">
    <g
       id="g11"
       transform="translate(6.3120067,-60.414922)" />
    <g
       id="g13">
      <g
         id="g30"
         transform="translate(0,-37.266475)">
        <g
           id="g28"
           transform="translate(-912.10088,59.108824)">
          <g
             id="g31">
            <g
               id="g1"
               transform="matrix(0.28808613,0,0,0.28808613,829.93132,184.29625)">
              <g
                 id="g24"
                 transform="translate(909.7749,17.928127)">
                <g
                   id="g2">
                  <g
                     id="g29"
                     transform="translate(-7.9339367,-131.13988)">
                    <path
                       style="fill:#6dc381;fill-opacity:1"
                       d="M 187.55677,403.96843 V 561.7686 l 76.64464,-44.2508 V 399.45985 Z"
                       id="path28" />
                    <path
                       style="fill:#1ba97f;fill-opacity:1"
                       d="m 340.31113,404.27702 v 157.80017 l -76.64464,-44.2508 V 399.76844 Z"
                       id="path29" />
                  </g>
                  <g
                     id="g25">
                    <g
                       id="g10"
                       transform="translate(5.106407,-45.719131)">
                      <path
                         id="path1"
                         style="fill:#ffc107"
                         d="M 418.27148,258.23163 A 157.48941,157.48941 0 0 1 260.78207,415.72104 157.48941,157.48941 0 0 1 103.29266,258.23163 157.48941,157.48941 0 0 1 260.78207,100.74222 157.48941,157.48941 0 0 1 418.27148,258.23163 Z" />
                      <path
                         id="circle3"
                         style="fill:url(#linearGradient10);stroke-width:1.10313"
                         transform="matrix(0.00871443,0.99996203,0.99995709,-0.00926421,0,0)"
                         d="M 421.48955,246.79297 A 161.2585,171.09491 0 0 1 340.8603,394.96551 161.2585,171.09491 0 0 1 179.60179,394.9655 161.2585,171.09491 0 0 1 98.972549,246.79297" />
                      <path
                         id="path4"
                         style="fill:url(#linearGradient8);stroke-width:1.10313"
                         transform="matrix(-0.00871443,0.99996203,-0.99995709,-0.00926421,0,0)"
                         d="m 416.84052,-254.97523 a 161.2585,171.09491 0 0 1 -80.62926,148.17253 161.2585,171.09491 0 0 1 -161.2585,0 161.2585,171.09491 0 0 1 -80.629243,-148.17253" />
                      <path
                         id="circle1"
                         style="fill:#ffdf7e;stroke-width:0.81961"
                         d="M 381.86195,258.23163 A 129.07988,129.07988 0 0 1 252.78207,387.31151 129.07988,129.07988 0 0 1 123.70219,258.23163 129.07988,129.07988 0 0 1 252.78207,129.15175 129.07988,129.07988 0 0 1 381.86195,258.23163 Z" />
                      <path
                         id="path5"
                         style="fill:url(#linearGradient6)"
                         inkscape:transform-center-x="-0.18979135"
                         inkscape:transform-center-y="-9.5687272"
                         transform="translate(24.018122,56.653351)"
                         d="m 286.74544,287.64716 -59.82029,-31.91017 -60.19988,31.18816 11.86289,-66.75326 -48.26448,-47.61581 67.15196,-9.34562 30.37078,-60.61635 29.6393,60.97735 67.03466,10.15285 -48.83386,47.0317 z" />
                    </g>
                    <path
                       d="m 212.9944,240.15137 c 0,0 0,-44.67746 0,-44.67746 0,0 7.46664,0 7.46664,0 0,0 0,6.1814 0,6.1814 0,0 3.30491,-4.95736 3.30491,-4.95736 0,0 5.93659,-1.83606 5.93659,-1.83606 0,0 5.69179,1.59125 5.69179,1.59125 0,0 3.85573,4.52895 3.85573,4.52895 0,0 1.40764,6.73222 1.40764,6.73222 0,0 0,9.1191 0,9.1191 0,0 -2.9989,9.3639 -2.9989,9.3639 0,0 -7.95626,3.54972 -7.95626,3.54972 0,0 -5.99779,-1.83606 -5.99779,-1.83606 0,0 -3.30491,-5.14097 -3.30491,-5.14097 0,0 0.24481,7.95626 0.24481,7.95626 0,0 0,9.42511 0,9.42511 z m 13.83165,-17.01416 c 0,0 4.52895,-1.59125 4.52895,-1.59125 0,0 1.65245,-4.89616 1.65245,-4.89616 0,0 0,-8.69068 0,-8.69068 0,0 -1.65245,-4.89616 -1.65245,-4.89616 0,0 -4.52895,-1.59125 -4.52895,-1.59125 0,0 -4.59015,1.77485 -4.59015,1.77485 0,0 -1.59125,5.01857 -1.59125,5.01857 0,0 0,8.07866 0,8.07866 0,0 1.59125,5.01857 1.59125,5.01857 z m 22.88946,5.9978 c 0,0 0,-44.67746 0,-44.67746 0,0 7.65025,0 7.65025,0 0,0 0,11.01636 0,11.01636 0,0 -0.18361,6.2426 -0.18361,6.2426 0,0 2.9989,-5.01856 2.9989,-5.01856 0,0 6.059,-1.83606 6.059,-1.83606 0,0 7.89505,3.30491 7.89505,3.30491 0,0 2.9989,8.87429 2.9989,8.87429 0,0 0,22.09392 0,22.09392 0,0 -7.65025,0 -7.65025,0 0,0 0,-21.17589 0,-21.17589 0,0 -1.65245,-4.77376 -1.65245,-4.77376 0,0 -4.34534,-1.71365 -4.34534,-1.71365 0,0 -4.52895,1.71365 -4.52895,1.71365 0,0 -1.59125,4.89616 -1.59125,4.89616 0,0 0,21.05349 0,21.05349 z m 36.7211,11.01636 c 0,0 0,-44.67746 0,-44.67746 0,0 7.46665,0 7.46665,0 0,0 0,6.1814 0,6.1814 0,0 3.30491,-4.95736 3.30491,-4.95736 0,0 5.93659,-1.83606 5.93659,-1.83606 0,0 5.69179,1.59125 5.69179,1.59125 0,0 3.85572,4.52895 3.85572,4.52895 0,0 1.40765,6.73222 1.40765,6.73222 0,0 0,9.1191 0,9.1191 0,0 -2.9989,9.3639 -2.9989,9.3639 0,0 -7.95626,3.54972 -7.95626,3.54972 0,0 -5.9978,-1.83606 -5.9978,-1.83606 0,0 -3.3049,-5.14097 -3.3049,-5.14097 0,0 0.2448,7.95626 0.2448,7.95626 0,0 0,9.42511 0,9.42511 z m 13.83166,-17.01416 c 0,0 4.52894,-1.59125 4.52894,-1.59125 0,0 1.65246,-4.89616 1.65246,-4.89616 0,0 0,-8.69068 0,-8.69068 0,0 -1.65246,-4.89616 -1.65246,-4.89616 0,0 -4.52894,-1.59125 -4.52894,-1.59125 0,0 -4.59015,1.77485 -4.59015,1.77485 0,0 -1.59126,5.01857 -1.59126,5.01857 0,0 0,8.07866 0,8.07866 0,0 1.59126,5.01857 1.59126,5.01857 z"
                       id="text12"
                       style="font-weight:bold;font-size:61.202px;font-family:'JetBrains Mono';-inkscape-font-specification:'JetBrains Mono Bold';fill:#ffdf7e;stroke-width:0.31876"
                       aria-label="php"
                       transform="matrix(1.0684567,0.56719748,-0.59044422,1.0263899,99.313367,-156.43528)" />
                  </g>
                </g>
              </g>
            </g>
          </g>
        </g>
      </g>
    </g>
  </g>
</svg>
